<svg xmlns="http://www.w3.org/2000/svg" viewBox="0 0 2732 2732"><defs><linearGradient id="cap" x1="0" x2="1"><stop stop-color="#7C4DFF"/><stop offset="1" stop-color="#4B2EDB"/></linearGradient><linearGradient id="fur" x1="0" y1="0" x2="1" y2="1"><stop stop-color="#8A553A"/><stop offset="1" stop-color="#4A2C20"/></linearGradient><linearGradient id="word" x1="0" x2="1"><stop stop-color="#7C4DFF"/><stop offset="1" stop-color="#B788FF"/></linearGradient></defs><rect width="2732" height="2732" fill="#F5F6FB"/><circle cx="2350" cy="330" r="420" fill="#EEDFFF"/><circle cx="210" cy="2420" r="360" fill="#EEDFFF"/><g transform="translate(1010 485) scale(1.42)"><ellipse cx="256" cy="343" rx="150" ry="164" fill="url(#fur)"/><ellipse cx="256" cy="374" rx="92" ry="72" fill="#E0A47D"/><circle cx="199" cy="302" r="37" fill="#111016"/><circle cx="313" cy="302" r="37" fill="#111016"/><circle cx="211" cy="289" r="10" fill="#fff"/><circle cx="325" cy="289" r="10" fill="#fff"/><ellipse cx="256" cy="353" rx="31" ry="24" fill="#161116"/><path d="M214 398c26 31 58 31 84 0" fill="none" stroke="#23150F" stroke-width="13" stroke-linecap="round"/><path d="M240 396v32h18v-32M258 396v32h18v-32" fill="#fff"/><path d="M148 227c20-115 197-138 230 1-72-31-159-32-230-1Z" fill="url(#cap)"/><rect x="154" y="211" width="208" height="55" rx="27" fill="#6E2EDB"/><circle cx="255" cy="164" r="34" fill="#6E2EDB"/><text x="256" y="233" text-anchor="middle" font-family="Arial,Helvetica,sans-serif" font-size="76" font-weight="900" fill="#FFF8E9">T</text><path d="M164 366 78 343M166 390 72 395M346 366l86-23M344 390l94 5" stroke="#F2D5C4" stroke-width="9" stroke-linecap="round"/><ellipse cx="144" cy="462" rx="55" ry="72" fill="#5C3728"/><ellipse cx="368" cy="462" rx="55" ry="72" fill="#5C3728"/><ellipse cx="144" cy="473" rx="33" ry="42" fill="#F0A99A"/><ellipse cx="368" cy="473" rx="33" ry="42" fill="#F0A99A"/></g><text x="1366" y="1740" text-anchor="middle" font-family="Arial,Helvetica,sans-serif" font-size="300" font-weight="900" letter-spacing="-18" fill="#211A47">TuT</text><path d="M1475 1618c0-65 52-117 117-117s117 52 117 117c0 87-117 194-117 194s-117-107-117-194Z" fill="url(#word)"/><circle cx="1592" cy="1616" r="38" fill="#F5F6FB"/><text x="1715" y="1740" font-family="Arial,Helvetica,sans-serif" font-size="300" font-weight="900" letter-spacing="-18" fill="url(#word)">p</text><text x="1366" y="1930" text-anchor="middle" font-family="Arial,Helvetica,sans-serif" font-size="88" font-weight="700" fill="#4B2EDB">Descubre, conecta y encuentra cerca de ti.</text></svg>